<svg width="240" height="80" viewBox="0 0 240 80" xmlns="http://www.w3.org/2000/svg" fill="currentColor" role="img" aria-label="agentpipe">
  <!-- Input node -->
  <circle cx="20" cy="40" r="9"/>
  <!-- Bar to fork -->
  <rect x="32" y="36" width="24" height="8" rx="2"/>
  <!-- Fork node -->
  <circle cx="68" cy="40" r="9"/>

  <!-- Upper parallel branch: fork → small node → join -->
  <path d="M 76 32 Q 92 16 108 16 Q 124 16 140 32" stroke="currentColor" stroke-width="8" stroke-linecap="round" fill="none"/>
  <circle cx="108" cy="16" r="7"/>

  <!-- Lower parallel branch: fork → small node → join -->
  <path d="M 76 48 Q 92 64 108 64 Q 124 64 140 48" stroke="currentColor" stroke-width="8" stroke-linecap="round" fill="none"/>
  <circle cx="108" cy="64" r="7"/>

  <!-- Join node -->
  <circle cx="148" cy="40" r="9"/>
  <!-- Bar to iteration node -->
  <rect x="160" y="36" width="22" height="8" rx="2"/>

  <!-- Iteration node (ring + center dot — "ongoing / iterative work after merge") -->
  <circle cx="192" cy="40" r="10" fill="none" stroke="currentColor" stroke-width="4"/>
  <circle cx="192" cy="40" r="3"/>

  <!-- Bar to arrow -->
  <rect x="204" y="36" width="16" height="8" rx="2"/>
  <!-- Arrow -->
  <polygon points="220,28 236,40 220,52"/>
</svg>
